<svg width="42" height="48" viewBox="0 0 42 48" fill="none" xmlns="http://www.w3.org/2000/svg">
<path d="M39.5052 20.8829L6.34695 0.543446C5.78791 0.200192 5.14763 0.0128033 4.49222 0.000633091C3.83681 -0.0115371 3.19005 0.151952 2.61872 0.474217C2.05283 0.791476 1.58143 1.25415 1.253 1.81466C0.924563 2.37516 0.750946 3.01327 0.75 3.66337V44.3378C0.754264 45.3129 1.14453 46.2465 1.83502 46.9332C2.5255 47.6199 3.45968 48.0037 4.4322 48C5.111 47.9997 5.77662 47.8121 6.35615 47.4577L39.5052 27.1182C40.038 26.7925 40.4784 26.3349 40.7839 25.7894C41.0895 25.2438 41.25 24.6286 41.25 24.0029C41.25 23.3772 41.0895 22.762 40.7839 22.2164C40.4784 21.6708 40.038 21.2132 39.5052 20.8876V20.8829ZM4.4322 44.2939V3.69337L37.5329 24.0006L4.4322 44.2939Z" fill="#F6F8F8"/>
</svg>
