<svg width="20" height="20" viewBox="0 0 20 20" fill="none" xmlns="http://www.w3.org/2000/svg">
<path d="M10.1269 14.3575C12.3673 14.3575 14.1835 12.5159 14.1835 10.2444C14.1835 7.97283 12.3673 6.13135 10.1269 6.13135C7.88651 6.13135 6.07031 7.97283 6.07031 10.2444C6.07031 12.5159 7.88651 14.3575 10.1269 14.3575Z" stroke="#6B6B6B" stroke-linecap="round" stroke-linejoin="round"/>
<path d="M1 14.3582L1 6.13205C1 3.29258 3.27026 0.990723 6.07075 0.990723L14.184 0.990723C16.9844 0.990723 19.2547 3.29258 19.2547 6.13205V14.3582C19.2547 17.1976 16.9844 19.4995 14.184 19.4995H6.07075C3.27026 19.4995 1 17.1976 1 14.3582Z" stroke="#6B6B6B"/>
<path d="M15.707 4.60056L15.718 4.58838" stroke="#6B6B6B" stroke-linecap="round" stroke-linejoin="round"/>
</svg>
